<?xml version="1.0" encoding="UTF-8"?>
<svg id="Layer_1" data-name="Layer 1" xmlns="http://www.w3.org/2000/svg" version="1.1" viewBox="0 0 242 242">
  <defs>
    <style>
      .cls-1 {
        fill: none;
      }

      .cls-1, .cls-2, .cls-3 {
        stroke-width: 0px;
      }

      .cls-2 {
        fill: #171921;
      }

      .cls-3 {
        fill: #ffff0a;
      }
    </style>
  </defs>
  <path class="cls-2" d="M207.9,107.3c4.1,20,10.8,68.7-14.8,91.4-26.6,23.6-77.9,9-93,4.1-32.2-10.8-68.7-32.3-74.4-60.2-6.8-33.9,32.2-71.6,44.4-82.4,12.4-10.9,55.3-45.8,87.7-34.9,26.4,8.8,43.2,48.2,50.1,82h0Z"/>
  <path class="cls-3" d="M107.7,125.8c1.5,7.2,13.6,23.7,32.6,36.2,18.9,12.5,31.5,12.2,34.3,8s3.6-23.9-2.8-55.3c-6.7-32.7-16.3-53.3-19.8-55.6s-15.7,3.6-28.5,22.8c-13.3,20-16.8,38.4-15.7,43.9h0Z"/>
  <line class="cls-1" x1="141.5" y1="-8072" x2="141.5" y2="8311"/>
</svg>