<svg width="839" height="209" viewBox="0 0 839 209" fill="none" xmlns="http://www.w3.org/2000/svg">
<g clip-path="url(#clip0_107_38)">
<path d="M81.7829 209C66.0418 209 51.9866 205.452 39.5977 198.336C27.2087 191.221 17.5053 181.361 10.5071 168.756C3.5089 156.152 0 141.548 0 124.965C0 108.381 3.5089 93.7776 10.5071 81.1733C17.5053 68.569 27.2087 58.709 39.5977 51.5934C51.9866 44.4777 66.0418 40.9297 81.7829 40.9297C101.601 40.9297 118.264 46.1047 131.731 56.4547C145.198 66.8048 153.882 80.8008 157.763 98.4821H121.89C119.734 89.6415 114.99 82.7414 107.659 77.8017C100.327 72.8423 91.7019 70.3724 81.8025 70.3724C73.3929 70.3724 65.6302 72.4698 58.534 76.6843C51.4378 80.8988 45.7137 87.0344 41.4011 95.1105C37.0885 103.187 34.9322 113.164 34.9322 125.004C34.9322 136.844 37.0885 146.821 41.4011 154.898C45.7137 162.974 51.4182 169.168 58.534 173.481C65.6498 177.793 73.4125 179.949 81.8025 179.949C91.7215 179.949 100.327 177.479 107.659 172.52C114.99 167.561 119.734 160.563 121.89 151.506H157.763C154.098 168.756 145.472 182.654 131.907 193.201C118.323 203.766 101.621 209.039 81.8025 209.039L81.7829 209Z" fill="#171721"/>
<path d="M161.488 205.119V0H195.754V70.6468C201.144 61.3749 208.633 54.1024 218.218 48.8294C227.804 43.5564 238.429 40.9101 250.053 40.9101C269.225 40.9101 284.319 46.9476 295.316 59.0226C306.313 71.0976 311.802 89.0926 311.802 113.007V205.138H277.87V116.555C277.87 85.5249 265.481 69.9999 240.703 69.9999C227.765 69.9999 217.042 74.528 208.535 83.5843C200.027 92.6406 195.773 105.559 195.773 122.377V205.138H161.507L161.488 205.119Z" fill="#171721"/>
<path d="M376.55 209C362.966 209 351.772 206.746 342.932 202.218C334.091 197.689 327.524 191.711 323.211 184.281C318.899 176.852 316.742 168.717 316.742 159.877C316.742 144.352 322.78 132.08 334.836 123.024C346.911 113.968 364.142 109.44 386.548 109.44H428.576V106.539C428.576 94.0324 425.185 84.6625 418.402 78.4093C411.62 72.1562 402.838 69.0394 392.056 69.0394C382.568 69.0394 374.335 71.3525 367.337 75.9982C360.339 80.644 356.065 87.4656 354.576 96.5219H320.31C321.388 84.8781 325.328 74.9201 332.111 66.6283C338.893 58.3366 347.519 51.9658 357.967 47.5553C368.415 43.1448 379.902 40.9297 392.389 40.9297C414.795 40.9297 432.144 46.8104 444.435 58.5522C456.726 70.294 462.861 86.3091 462.861 106.558V205.158H433.124L430.223 177.676C425.695 186.516 419.128 193.945 410.502 199.983C401.877 206.02 390.566 209.039 376.57 209.039L376.55 209ZM383.333 181.204C392.605 181.204 400.407 178.989 406.778 174.578C413.129 170.168 418.089 164.287 421.656 156.956C425.205 149.625 427.42 141.548 428.282 132.708H390.135C376.55 132.708 366.906 135.08 361.201 139.823C355.497 144.567 352.635 150.487 352.635 157.603C352.635 164.718 355.379 170.697 360.868 174.892C366.357 179.087 373.845 181.204 383.333 181.204Z" fill="#171721"/>
<path d="M476.407 205.119V0H510.672V111.047L572.088 44.7717H613.136L544.938 117.496L623.173 205.099H579.851L510.672 122.985V205.099H476.407V205.119Z" fill="#171721"/>
<path d="M626.604 205.119V44.7913H657.302L660.203 75.1749C665.809 64.6092 673.611 56.2587 683.648 50.1231C693.665 43.9876 705.799 40.91 720.011 40.91V76.7823H710.641C701.153 76.7823 692.704 78.3505 685.255 81.4672C677.826 84.584 671.886 89.8766 667.475 97.3059C663.045 104.735 660.85 115.026 660.85 128.18V205.119H626.584H626.604Z" fill="#171721"/>
<path d="M810.87 205.119C795.129 205.119 782.642 201.296 773.37 193.651C764.098 186.006 759.471 172.383 759.471 152.761V73.5479H731.988V44.7717H759.471L763.666 0.588013H793.737V44.7913H839V73.5675H793.737V152.761C793.737 161.602 795.619 167.678 799.383 171.03C803.146 174.363 809.674 176.048 818.946 176.048H837.373V205.138H810.87V205.119Z" fill="#171721"/>
</g>
<defs>
<clipPath id="clip0_107_38">
<rect width="839" height="209" fill="white"/>
</clipPath>
</defs>
</svg>
