<?xml version="1.0" encoding="UTF-8"?>
<svg id="Layer_1" data-name="Layer 1" xmlns="http://www.w3.org/2000/svg" version="1.1" viewBox="0 0 242 242">
  <defs>
    <style>
      .cls-1 {
        fill: #39362c;
        stroke-width: 0px;
      }
    </style>
  </defs>
  <path class="cls-1" d="M85.7,190.9c-18-9.6-60.1-35.6-61.4-69.8-1.3-35.7,42.8-66.2,56.3-74.6,28.9-18.1,68.9-32.7,94.3-19.2,30.7,16.3,34.8,70.7,35.4,87,.6,16.6.1,72.1-29,90.2-23.7,14.8-64.9,2.6-95.5-13.6ZM135.4,101.5c-6.5-3.5-27.1-4.7-48.8,2.1-21.8,6.8-29.5,16.6-28.1,21.4,1.4,4.7,16.2,18.1,44.6,33.2,29.6,15.8,51.7,21.5,55.8,20.2,3.8-1.2,7.2-14.4.5-36.7-7-23.1-19.1-37.6-24-40.2Z"/>
</svg>