<?xml version="1.0" encoding="UTF-8" standalone="no"?>
<svg
   width="176.99059"
   height="67.455452"
   viewBox="0 0 176.99059 67.455452"
   fill="none"
   version="1.1"
   id="svg6"
   sodipodi:docname="Logo.svg"
   inkscape:version="1.4.3 (0d15f75, 2025-12-25)"
   xmlns:inkscape="http://www.inkscape.org/namespaces/inkscape"
   xmlns:sodipodi="http://sodipodi.sourceforge.net/DTD/sodipodi-0.dtd"
   xmlns="http://www.w3.org/2000/svg"
   xmlns:svg="http://www.w3.org/2000/svg">
  <sodipodi:namedview
     id="namedview6"
     pagecolor="#ffffff"
     bordercolor="#000000"
     borderopacity="0.25"
     inkscape:showpageshadow="2"
     inkscape:pageopacity="0.0"
     inkscape:pagecheckerboard="0"
     inkscape:deskcolor="#d1d1d1"
     inkscape:zoom="2.6180177"
     inkscape:cx="106.3782"
     inkscape:cy="-34.759123"
     inkscape:window-width="1728"
     inkscape:window-height="989"
     inkscape:window-x="0"
     inkscape:window-y="33"
     inkscape:window-maximized="1"
     inkscape:current-layer="svg6" />
  <g
     clip-path="url(#clip0_1147_3)"
     id="g6"
     transform="translate(-0.03788979,-0.01597972)">
    <path
       d="m 30.1341,52.0889 c -2.7204,0 -5.1495,-0.6126 -7.2906,-1.8413 C 20.7023,49.0189 19.0253,47.3163 17.8159,45.1399 16.6064,42.9634 16,40.4418 16,37.5782 c 0,-2.8635 0.6064,-5.3852 1.8159,-7.5617 1.2094,-2.1764 2.8864,-3.879 5.0276,-5.1077 2.1411,-1.2286 4.5702,-1.8413 7.2906,-1.8413 3.4251,0 6.3048,0.8936 8.6322,2.6808 2.3275,1.7872 3.8283,4.2039 4.4991,7.257 h -6.1998 c -0.3726,-1.5265 -1.1925,-2.718 -2.4595,-3.571 -1.2671,-0.8563 -2.7577,-1.2828 -4.4686,-1.2828 -1.4534,0 -2.795,0.3622 -4.0214,1.0899 -1.2264,0.7277 -2.2156,1.7872 -2.961,3.1817 -0.7453,1.3946 -1.118,3.1174 -1.118,5.1619 0,2.0444 0.3727,3.7673 1.118,5.1618 0.7454,1.3946 1.7312,2.4642 2.961,3.2088 1.2298,0.7447 2.5714,1.117 4.0214,1.117 1.7142,0 3.2015,-0.4265 4.4686,-1.2828 1.267,-0.8564 2.0869,-2.0648 2.4595,-3.6286 h 6.1998 c -0.6335,2.9787 -2.1242,5.3785 -4.4686,7.1995 -2.3477,1.8245 -5.2342,2.735 -8.6593,2.735 z"
       fill="#ffffff"
       id="path1" />
    <path
       d="M 43.9091,51.4187 V 16 h 5.9219 v 12.1989 c 0.9317,-1.601 2.2258,-2.8568 3.8825,-3.7673 1.6567,-0.9105 3.4929,-1.3675 5.5019,-1.3675 3.3133,0 5.9219,1.0425 7.8225,3.1276 1.9006,2.085 2.8492,5.1923 2.8492,9.3217 v 15.9087 h -5.8644 v -15.296 c 0,-5.3582 -2.1411,-8.0389 -6.4233,-8.0389 -2.236,0 -4.0892,0.7819 -5.5595,2.3456 -1.4703,1.5638 -2.2055,3.7944 -2.2055,6.6986 v 14.2907 h -5.922 z"
       fill="#ffffff"
       id="path2" />
    <path
       d="m 81.0772,52.0889 c -2.3478,0 -4.2823,-0.3892 -5.8102,-1.1711 -1.5279,-0.7819 -2.6628,-1.8143 -3.4082,-3.0971 -0.7453,-1.2829 -1.118,-2.6876 -1.118,-4.2141 0,-2.6808 1.0435,-4.7997 3.127,-6.3635 2.0869,-1.5638 5.0649,-2.3457 8.9372,-2.3457 h 7.2635 v -0.5009 c 0,-2.1595 -0.5861,-3.7775 -1.7583,-4.8572 -1.1722,-1.0798 -2.6899,-1.618 -4.5532,-1.618 -1.6398,0 -3.0626,0.3994 -4.2721,1.2016 -1.2095,0.8022 -1.948,1.9802 -2.2055,3.5439 h -5.922 c 0.1864,-2.0105 0.8673,-3.73 2.0395,-5.1618 1.1722,-1.4318 2.6629,-2.5318 4.4686,-3.2934 1.8057,-0.7616 3.791,-1.1441 5.9491,-1.1441 3.8723,0 6.8705,1.0155 8.9947,3.043 2.1242,2.0275 3.1846,4.7929 3.1846,8.2894 V 51.4255 H 90.8545 L 90.3531,46.68 c -0.7826,1.5265 -1.9175,2.8094 -3.4082,3.8519 -1.4906,1.0425 -3.4454,1.5638 -5.8643,1.5638 z m 1.1722,-4.7997 c 1.6024,0 2.9508,-0.3824 4.0518,-1.144 1.0977,-0.7616 1.9548,-1.7771 2.5714,-3.043 0.6132,-1.2659 0.9961,-2.6604 1.1451,-4.187 H 83.425 c -2.3478,0 -4.0146,0.4096 -5.0005,1.2287 -0.9859,0.8191 -1.4805,1.8413 -1.4805,3.07 0,1.2287 0.4743,2.2611 1.4229,2.9854 0.9486,0.7244 2.2428,1.0899 3.8825,1.0899 z"
       fill="#ffffff"
       id="path3" />
    <path
       d="M 97.335,51.4187 V 16 h 5.922 v 19.175 l 10.614,-11.4441 h 7.094 L 109.179,36.2886 122.7,51.4153 h -7.487 l -11.956,-14.179 v 14.179 h -5.922 z"
       fill="#ffffff"
       id="path4" />
    <path
       d="M 123.293,51.4187 V 23.7343 h 5.305 l 0.501,5.2464 c 0.969,-1.8244 2.318,-3.2663 4.052,-4.3258 1.731,-1.0594 3.828,-1.5908 6.285,-1.5908 v 6.1942 h -1.62 c -1.639,0 -3.1,0.2708 -4.387,0.809 -1.284,0.5382 -2.31,1.4521 -3.073,2.7349 -0.765,1.2828 -1.145,3.0599 -1.145,5.3311 v 13.2854 h -5.922 z"
       fill="#ffffff"
       id="path5" />
    <path
       d="m 154.138,51.4187 c -2.72,0 -4.878,-0.66 -6.481,-1.9801 -1.602,-1.3201 -2.402,-3.6725 -2.402,-7.0607 V 28.6998 h -4.749 v -4.9689 h 4.749 l 0.725,-7.6293 h 5.197 v 7.6327 H 159 v 4.9689 h -7.823 v 13.6747 c 0,1.5265 0.326,2.5758 0.976,3.1546 0.651,0.5755 1.779,0.8666 3.381,0.8666 h 3.185 v 5.023 h -4.581 z"
       fill="#ffffff"
       id="path6" />
  </g>
  <defs
     id="defs6">
    <clipPath
       id="clip0_1147_3">
      <rect
         width="145"
         height="36.088902"
         fill="#ffffff"
         transform="translate(16,16)"
         id="rect6"
         x="0"
         y="0" />
    </clipPath>
  </defs>
</svg>
